<?xml version="1.0" encoding="utf-8"?>
<!-- Generator: Adobe Illustrator 19.0.0, SVG Export Plug-In . SVG Version: 6.00 Build 0)  -->
<svg version="1.1" id="Capa_1" xmlns="http://www.w3.org/2000/svg" xmlns:xlink="http://www.w3.org/1999/xlink" x="0px" y="0px"
	 viewBox="0 0 268.9 69.2" style="enable-background:new 0 0 268.9 69.2;" xml:space="preserve">
<g>
	<path d="M32.6,69c-9.6,0-18.7,0-27.9,0c-1.5,0-3.4,0.7-4.3-0.3c-0.9-0.9-0.3-2.8-0.3-4.3c0-20.8,0-41.6,0-62.4c0-1.5,0.3-2,1.9-2
		c10,0.1,20,0,30.5,0c-1,1-1.7,1.7-2.4,2.4c-2.2,2.2-4.4,4.3-6.5,6.6c-0.9,1-1.8,1.3-3.1,1.2c-2.8-0.1-5.6,0-8.4,0
		c-1.3,0-1.8,0.4-1.8,1.7c0.1,3.3,0.1,6.6,0,10c0,1.3,0.5,1.7,1.7,1.6c2.9-0.1,5.8,0,8.7,0c1.1,0,1.4,0.3,1.4,1.4
		c-0.1,2.5-0.1,5,0,7.5c0,1.1-0.3,1.4-1.4,1.4c-2.9-0.1-5.8,0-8.7,0c-1.2,0-1.7,0.4-1.7,1.6c0,7.3,0,14.6,0,21.9
		c0,1.2,0.5,1.6,1.6,1.5c3,0,5.9,0,8.9,0c1,0,1.8,0.2,2.5,1C26.3,62.8,29.3,65.7,32.6,69z"/>
	<path d="M173.6,0c-3.5,3.5-6.7,6.7-9.8,9.9c-0.5,0.5-1.1,0.4-1.7,0.4c-3,0-5.9,0.1-8.9,0c-1.3,0-1.8,0.3-1.8,1.7
		c0.1,3.3,0.1,6.6,0,10c0,1.3,0.5,1.7,1.7,1.6c2.9-0.1,5.8,0,8.7,0c1.1,0,1.4,0.3,1.4,1.4c-0.1,2.5-0.1,5,0,7.5
		c0,1.1-0.3,1.4-1.4,1.4c-2.8-0.1-5.7,0-8.5,0c-1.4,0-1.9,0.4-1.9,1.8c0.1,7.2,0.1,14.3,0,21.5c0,1.3,0.5,1.8,1.8,1.7
		c3-0.1,5.9,0,8.9,0c0.6,0,1.3-0.1,1.8,0.5c3.1,3.1,6.3,6.3,9.4,9.4c-0.5,0.6-1,0.3-1.4,0.4c-9.7,0-19.3,0-29,0
		c-1.4,0-1.7-0.4-1.7-1.8c0-21.8,0-43.6,0-65.5c0-1.3,0.2-1.8,1.7-1.8C152.9,0.1,163,0,173.6,0z"/>
	<path d="M47.2,1.8c0.8,0.1,1.1,0.7,1.5,1.1c10.4,10.3,20.7,20.7,31.1,31.1c0.8,0.8,1.2,1.6,1.1,2.8c0,9.7,0,19.3,0,29
		c0,0.5,0,1,0,1.6c-0.8-0.1-1.1-0.7-1.5-1.1C69,55.9,58.7,45.5,48.3,35.1c-0.8-0.8-1.2-1.6-1.1-2.8c0-9.7,0-19.3,0-29
		C47.2,2.8,47.2,2.3,47.2,1.8z"/>
	<path d="M221.9,67.8c-7-7-13.6-13.7-20.2-20.3c-0.8-0.7-1.4-2.2-2.7-1.7c-1.2,0.5-0.5,1.9-0.5,2.9c-0.1,6.2,0,12.3,0,18.7
		c-1-0.4-1.5-1.2-2.1-1.7c-2.5-2.4-4.9-4.9-7.3-7.3c-0.5-0.5-0.9-1-0.9-1.8c0-14.2,0-28.3,0-42.5c0-0.2,0.1-0.3,0.1-0.5
		c0.7,0.1,1,0.7,1.4,1.1c10.4,10.3,20.7,20.7,31.1,31c0.8,0.8,1.2,1.6,1.2,2.8c-0.1,5.8,0,11.5,0,17.3
		C221.9,66.2,221.9,66.7,221.9,67.8z"/>
	<path d="M116.2,67.7c-3.5-3.5-6.5-6.6-9.7-9.6c-0.7-0.7-0.6-1.4-0.6-2.1c0-14.5,0-28.9,0-43.4c0-1.8-0.5-2.4-2.3-2.3
		c-2.7,0.1-5.5,0-8.2,0.1c-1,0-1.3-0.3-1.3-1.3c0.1-2.6,0-5.2,0-7.8c0-0.8,0.2-1.1,1.1-1.1c10.5,0,21,0,31.5,0c1,0,1.2,0.4,1.2,1.3
		c0,2.6-0.1,5.2,0,7.8c0,1-0.4,1.2-1.3,1.2c-2.8,0-5.7,0.1-8.5,0c-1.6-0.1-2,0.5-2,2c0,17.7,0,35.3,0,53
		C116.2,66,116.2,66.6,116.2,67.7z"/>
	<path d="M268.7,67.6c-3.3-3.3-6.4-6.4-9.5-9.5c-0.7-0.7-0.6-1.4-0.6-2.1c0-10.6,0-21.1,0-31.7c0-1.5-0.5-2.5-1.5-3.6
		C250.7,14.4,244.4,8,238,1.6c-0.4-0.4-0.8-0.8-1.2-1.3c0.4-0.5,0.9-0.3,1.4-0.3c5.9,0,11.9,0,17.8,0c1,0,1.7,0.3,2.3,0.9
		c3.2,3.3,6.4,6.5,9.7,9.7c0.6,0.6,0.9,1.1,0.9,2c0,18,0,36.1,0,54.1C268.9,66.9,268.8,67.1,268.7,67.6z"/>
	<path d="M235.3,1.5c3.4,3.4,6.5,6.5,9.7,9.7c0.6,0.5,0.4,1.2,0.4,1.8c0,10.6,0,21.2,0,31.8c0,1.4,0.4,2.3,1.4,3.3
		c6.4,6.4,12.8,12.8,19.3,19.2c0.4,0.4,0.9,0.8,1.3,1.1c-0.4,0.7-0.8,0.5-1.2,0.5c-6,0-12.1,0-18.1,0c-0.9,0-1.5-0.3-2.2-0.9
		c-3.2-3.3-6.5-6.6-9.8-9.8c-0.5-0.5-0.8-1.1-0.8-1.8c0-18.1,0-36.2,0-54.3C235.2,2.1,235.2,2,235.3,1.5z"/>
	<path d="M199.6,0c3.1,0,6.3,0,9.4,0c0.9,0,1.5,0.2,2.2,0.9c3.2,3.3,6.5,6.6,9.8,9.8c0.6,0.6,0.9,1.2,0.8,2
		c-0.1,3.1,0.7,6.4-0.2,9.2c-0.9,2.8-4.1,4.5-6.2,6.7c-1.1,1.2-2.4,2.3-3.5,3.5c-0.8,0.9-1.3,0.9-2.2,0
		c-5.7-5.8-11.3-11.7-17.3-17.2c-3.3-3-4.9-6.2-4.4-10.7c0.4-4.2,0.1-4.2,4.3-4.2C194.8,0,197.2,0,199.6,0z"/>
	<path d="M70.7,1.3c3.5,3.5,6.6,6.7,9.8,9.8c0.4,0.4,0.5,0.8,0.5,1.3c0,6.5,0,12.9,0,19.4c0,0.1-0.1,0.2-0.2,0.4
		c-3.2-3.2-6.5-6.4-9.7-9.6c-0.3-0.3-0.3-0.6-0.3-1C70.7,15,70.7,8.4,70.7,1.3z"/>
	<path d="M47.2,36.6c3.4,3.4,6.5,6.5,9.6,9.6c0.5,0.5,0.6,1,0.6,1.6c0,6.5,0,12.9,0,19.3c-0.3,0.2-0.5,0.1-0.7-0.1
		c-3-3-5.9-6-8.9-8.9c-0.4-0.4-0.7-0.8-0.7-1.4C47.2,50.2,47.2,43.6,47.2,36.6z"/>
</g>
</svg>
